Coordinates
version=1
nRows=29
nColumns=22
inDegrees=yes

Units are S.I. units (second, meters, Newtons, ...)
If the header above contains a line with 'inDegrees', this indicates whether rotational values are in degrees (yes) or radians (no).

endheader
time	pelvis_tilt	pelvis_list	pelvis_rotation	pelvis_tx	pelvis_ty	pelvis_tz	hip_flexion_r	hip_adduction_r	hip_rotation_r	knee_angle_r	ankle_angle_r	subtalar_angle_r	hip_flexion_l	hip_adduction_l	hip_rotation_l	knee_angle_l	ankle_angle_l	subtalar_angle_l	lumbar_extension	lumbar_bending	lumbar_rotation
      1.35000000	     -5.39856531	     -3.00514577	      8.42218629	      0.57261195	      1.00734282	      0.14662439	     30.66052669	     -6.11823713	    -11.44055674	    -32.04244186	      5.11106015	      5.05591808	      8.44144230	     -2.13633467	     -6.40536263	    -17.55954106	     13.33095927	      0.87167387	     -4.60039328	     -0.84446816	     -3.51120715
      1.36000000	     -5.34900509	     -2.89366190	      8.41430183	      0.56719297	      1.00793764	      0.14690589	     30.33496934	     -6.21052536	    -11.33441845	    -33.45369977	      5.75058087	      4.94011950	      8.53447896	     -1.97150570	     -6.41899775	    -17.23620934	     12.99394471	      0.71060483	     -4.55118385	     -1.04553276	     -3.62423106
      1.37000000	     -5.29462223	     -2.77242573	      8.40593067	      0.56184687	      1.00843472	      0.14734506	     29.97862200	     -6.26362938	    -11.10410480	    -34.88825561	      6.36082085	      4.85074705	      8.64228652	     -1.80986295	     -6.42858997	    -16.96012056	     12.68373589	      0.53842976	     -4.50684129	     -1.27393438	     -3.72182185
      1.38000000	     -5.22973754	     -2.64439700	      8.39228946	      0.55659350	      1.00885693	      0.14789446	     29.58039885	     -6.27558294	    -10.76359029	    -36.32949567	      6.94121556	      4.79707188	      8.75426152	     -1.65307301	     -6.44677462	    -16.72407493	     12.39376936	      0.35806720	     -4.46567578	     -1.51226919	     -3.79636265
      1.39000000	     -5.14785013	     -2.51327142	      8.36473720	      0.55143075	      1.00923485	      0.14857504	     29.13007280	     -6.23839430	    -10.32719379	    -37.75754476	      7.47352814	      4.78618486	      8.86310690	     -1.50786588	     -6.47216782	    -16.52761704	     12.11350066	      0.16633163	     -4.43300683	     -1.75911749	     -3.84080647
      1.40000000	     -5.04556873	     -2.38363962	      8.32441033	      0.54637713	      1.00958953	      0.14935200	     28.61694581	     -6.15540554	     -9.82193460	    -39.15470629	      7.96115379	      4.80480179	      8.95924941	     -1.37767869	     -6.50529061	    -16.36076374	     11.84402992	     -0.01984654	     -4.40682989	     -2.00230656	     -3.85339261
      1.41000000	     -4.92479270	     -2.25324236	      8.27765199	      0.54142089	      1.00994042	      0.15017439	     28.03628795	     -6.03982111	     -9.26938125	    -40.50371265	      8.39751241	      4.84038991	      9.03925015	     -1.25528109	     -6.54792067	    -16.20918032	     11.57758829	     -0.19905044	     -4.38602305	     -2.23642216	     -3.82956950
      1.42000000	     -4.79030436	     -2.12050269	      8.21966440	      0.53657942	      1.01029090	      0.15105772	     27.38945644	     -5.90383055	     -8.70106971	    -41.79340234	      8.79618578	      4.87201411	      9.10190455	     -1.13959146	     -6.59571430	    -16.06649282	     11.30837418	     -0.36520217	     -4.36066674	     -2.46766141	     -3.77515875
      1.43000000	     -4.65097534	     -1.98040920	      8.15993102	      0.53181858	      1.01063599	      0.15194970	     26.68318647	     -5.77064988	     -8.13833574	    -43.01412554	      9.15486453	      4.89242273	      9.15326911	     -1.01887738	     -6.64488428	    -15.92124411	     11.02721835	     -0.52662881	     -4.32716622	     -2.69511414	     -3.68974377
      1.44000000	     -4.52045642	     -1.82493202	      8.09741451	      0.52713245	      1.01095787	      0.15285143	     25.92979625	     -5.66337790	     -7.61052374	    -44.15786117	      9.48656014	      4.88026897	      9.20621989	     -0.88219817	     -6.69704765	    -15.77425734	     10.73513720	     -0.67208267	     -4.27041212	     -2.93023229	     -3.57984762
      1.45000000	     -4.40935993	     -1.64880429	      8.03743415	      0.52248179	      1.01124004	      0.15374681	     25.14271395	     -5.60139922	     -7.13152381	    -45.22067090	      9.79571573	      4.83010859	      9.27037982	     -0.72048508	     -6.75088685	    -15.61772446	     10.42648949	     -0.80590529	     -4.18710450	     -3.17788516	     -3.44360885
      1.46000000	     -4.32036888	     -1.45159988	      7.98082307	      0.51785244	      1.01148161	      0.15465969	     24.32802508	     -5.59277260	     -6.71863325	    -46.19950441	     10.07266635	      4.74160008	      9.34756462	     -0.53340832	     -6.80295756	    -15.44757816	     10.10025584	     -0.94369899	     -4.07715305	     -3.44399892	     -3.28381772
      1.47000000	     -4.25960355	     -1.23497878	      7.93214914	      0.51322554	      1.01167421	      0.15556709	     23.49377030	     -5.64101474	     -6.37184063	    -47.08653953	     10.32893475	      4.61005197	      9.44797435	     -0.31971705	     -6.84953212	    -15.26864289	      9.75357961	     -1.07626568	     -3.93659901	     -3.71976303	     -3.10688646
      1.48000000	     -4.22191651	     -1.00763795	      7.89773287	      0.50855821	      1.01181704	      0.15649538	     22.64767864	     -5.73637132	     -6.09042382	    -47.89168965	     10.54872299	      4.44776198	      9.57463180	     -0.09070230	     -6.88042775	    -15.08791062	      9.39007385	     -1.20556122	     -3.78149928	     -4.00229063	     -2.91876185
      1.49000000	     -4.21635271	     -0.79410355	      7.88027375	      0.50388048	      1.01190475	      0.15745554	     21.79768533	     -5.85043849	     -5.88122017	    -48.59942576	     10.74842182	      4.28452325	      9.73410545	      0.12784783	     -6.89939433	    -14.89432319	      8.99832850	     -1.31151325	     -3.58977638	     -4.26308166	     -2.73927064
      1.50000000	     -4.19709204	     -0.55398274	      7.87223324	      0.49915074	      1.01199216	      0.15844792	     20.90697304	     -6.01249522	     -5.71256520	    -49.21792884	     10.84848793	      4.09660861	      9.88363732	      0.37386265	     -6.89556821	    -14.71324594	      8.64070413	     -1.49581805	     -3.43376201	     -4.54789092	     -2.53245212
      1.51000000	     -4.19539999	     -0.35073296	      7.88548148	      0.49438295	      1.01204068	      0.15949742	     20.00128815	     -6.14723445	     -5.59033212	    -49.71924459	     10.93010631	      3.95129238	     10.06698728	      0.58065831	     -6.87786286	    -14.53974067	      8.25353343	     -1.69869177	     -3.26359552	     -4.78597747	     -2.34849130
      1.52000000	     -4.23602661	     -0.16724748	      7.91274745	      0.48957654	      1.01200597	      0.16060840	     19.11914941	     -6.27536327	     -5.50759736	    -50.11403017	     10.95846665	      3.92456890	     10.30332372	      0.77020374	     -6.84267182	    -14.36897946	      7.85519434	     -1.78995384	     -3.04892216	     -5.00253535	     -2.17261001
      1.53000000	     -4.23323633	      0.03295241	      7.94357274	      0.48473260	      1.01198776	      0.16179314	     18.16984085	     -6.41808376	     -5.45294115	    -50.40112036	     10.95002952	      3.99750562	     10.49303215	      0.96925647	     -6.79182368	    -14.19975892	      7.52210725	     -1.99939318	     -2.90279423	     -5.23178150	     -1.97384682
      1.54000000	     -4.24712771	      0.19076078	      7.99092055	      0.47981520	      1.01191744	      0.16307014	     17.21452555	     -6.50532230	     -5.41561856	    -50.55005410	     10.89093105	      4.20536473	     10.73068412	      1.11818756	     -6.74053399	    -14.06407380	      7.15836249	     -2.17992140	     -2.74878081	     -5.41223901	     -1.80809723
      1.55000000	     -4.26491950	      0.34429216	      8.03442163	      0.47487073	      1.01179817	      0.16444029	     16.24539175	     -6.58351518	     -5.40338087	    -50.57211935	     10.78761272	      4.50411287	     10.97636285	      1.25736705	     -6.67132029	    -13.93356548	      6.82175167	     -2.31715934	     -2.59453173	     -5.58706764	     -1.63824841
      1.56000000	     -4.27997275	      0.48142472	      8.07986354	      0.46985590	      1.01163701	      0.16591669	     15.25865676	     -6.63216729	     -5.41189780	    -50.46014631	     10.65235245	      4.87454151	     11.24353851	      1.36929371	     -6.61291161	    -13.83488355	      6.48943739	     -2.43319588	     -2.45756873	     -5.74276274	     -1.47777137
      1.57000000	     -4.28913662	      0.61351587	      8.12220157	      0.46477434	      1.01142684	      0.16750567	     14.25625665	     -6.66683617	     -5.45102217	    -50.22007464	     10.51795568	      5.29430647	     11.53289181	      1.46293542	     -6.58431951	    -13.77999788	      6.18116659	     -2.53425443	     -2.33916766	     -5.89110401	     -1.32832598
      1.58000000	     -4.30880639	      0.74000353	      8.15212338	      0.45962309	      1.01115962	      0.16921693	     13.26638228	     -6.68662491	     -5.51210467	    -49.85664105	     10.33353757	      5.66754175	     11.84078265	      1.54558157	     -6.52639811	    -13.72882778	      5.86476134	     -2.58499749	     -2.21766740	     -6.03644788	     -1.16365056
      1.59000000	     -4.32370932	      0.86302465	      8.17260738	      0.45438695	      1.01084146	      0.17105823	     12.27675529	     -6.69556397	     -5.60637253	    -49.37398245	     10.16021966	      6.03651379	     12.17569726	      1.61007436	     -6.50580223	    -13.72508061	      5.55764676	     -2.62162569	     -2.11422123	     -6.17891751	     -1.00993406
      1.60000000	     -4.33804355	      0.98475005	      8.18298291	      0.44906289	      1.01046848	      0.17302925	     11.30037128	     -6.69590092	     -5.73003306	    -48.78192742	      9.98637717	      6.39340523	     12.53246351	      1.66281606	     -6.49774812	    -13.75071633	      5.25660434	     -2.64632111	     -2.02260531	     -6.32280404	     -0.85416988
      1.61000000	     -4.35916983	      1.10362986	      8.17588324	      0.44362217	      1.01003271	      0.17513196	     10.35499966	     -6.68709484	     -5.87281614	    -48.08542445	      9.79861657	      6.72237937	     12.91973530	      1.70356624	     -6.49838643	    -13.80366177	      4.95169635	     -2.66108822	     -1.93512179	     -6.46303762	     -0.69228569
      1.62000000	     -4.38406537	      1.22139929	      8.15221539	      0.43807009	      1.00953838	      0.17737394	      9.44244928	     -6.67042176	     -6.03065066	    -47.29209318	      9.60050744	      7.04480288	     13.32978085	      1.73306956	     -6.51950398	    -13.87547099	      4.65022457	     -2.67896973	     -1.85617025	     -6.60637526	     -0.52747892
      1.63000000	     -4.41799628	      1.33614593	      8.11044290	      0.43239130	      1.00897982	      0.17977488	      8.57563708	     -6.63796319	     -6.18687242	    -46.40940652	      9.36628112	      7.35025846	     13.76547908	      1.74964833	     -6.55327865	    -13.95780934	      4.33529981	     -2.70258510	     -1.77918077	     -6.75296200	     -0.35193822
